<?xml version="1.0" encoding="UTF-8" standalone="no"?>
<!DOCTYPE svg PUBLIC "-//W3C//DTD SVG 1.1//EN"
 "http://www.w3.org/Graphics/SVG/1.1/DTD/svg11.dtd">
<!-- Generated by graphviz version 2.30.1 (20180420.1509)
 -->
<!-- Title: snakemake_dag Pages: 1 -->
<svg width="369pt" height="476pt"
 viewBox="0.00 0.00 368.88 476.00" xmlns="http://www.w3.org/2000/svg" xmlns:xlink="http://www.w3.org/1999/xlink">
<g id="graph0" class="graph" transform="scale(1 1) rotate(0) translate(4 472)">
<title>snakemake_dag</title>
<polygon fill="white" stroke="white" points="-4,5 -4,-472 365.882,-472 365.882,5 -4,5"/>
<!-- 0 -->
<g id="node1" class="node"><title>0</title>
<path fill="none" stroke="#d88d56" stroke-width="2" d="M170.882,-36C170.882,-36 66.8816,-36 66.8816,-36 60.8816,-36 54.8816,-30 54.8816,-24 54.8816,-24 54.8816,-12 54.8816,-12 54.8816,-6 60.8816,-0 66.8816,-0 66.8816,-0 170.882,-0 170.882,-0 176.882,-0 182.882,-6 182.882,-12 182.882,-12 182.882,-24 182.882,-24 182.882,-30 176.882,-36 170.882,-36"/>
<text text-anchor="middle" x="118.882" y="-15.5" font-family="sans" font-size="10.00">evaluate_bins_checkm</text>
</g>
<!-- 1 -->
<g id="node2" class="node"><title>1</title>
<path fill="none" stroke="#bed856" stroke-width="2" d="M200.882,-108C200.882,-108 36.8816,-108 36.8816,-108 30.8816,-108 24.8816,-102 24.8816,-96 24.8816,-96 24.8816,-84 24.8816,-84 24.8816,-78 30.8816,-72 36.8816,-72 36.8816,-72 200.882,-72 200.882,-72 206.882,-72 212.882,-78 212.882,-84 212.882,-84 212.882,-96 212.882,-96 212.882,-102 206.882,-108 200.882,-108"/>
<text text-anchor="middle" x="118.882" y="-87.5" font-family="sans" font-size="10.00">generate_consensus_bins_dastools</text>
</g>
<!-- 1&#45;&gt;0 -->
<g id="edge1" class="edge"><title>1&#45;&gt;0</title>
<path fill="none" stroke="grey" stroke-width="2" d="M118.882,-71.6966C118.882,-63.9827 118.882,-54.7125 118.882,-46.1124"/>
<polygon fill="grey" stroke="grey" points="122.382,-46.1043 118.882,-36.1043 115.382,-46.1044 122.382,-46.1043"/>
</g>
<!-- 2 -->
<g id="node3" class="node"><title>2</title>
<path fill="none" stroke="#d8bc56" stroke-width="2" d="M218.132,-396C218.132,-396 113.632,-396 113.632,-396 107.632,-396 101.632,-390 101.632,-384 101.632,-384 101.632,-372 101.632,-372 101.632,-366 107.632,-360 113.632,-360 113.632,-360 218.132,-360 218.132,-360 224.132,-360 230.132,-366 230.132,-372 230.132,-372 230.132,-384 230.132,-384 230.132,-390 224.132,-396 218.132,-396"/>
<text text-anchor="middle" x="165.882" y="-375.5" font-family="sans" font-size="10.00">metaspades_assembly</text>
</g>
<!-- 2&#45;&gt;1 -->
<g id="edge2" class="edge"><title>2&#45;&gt;1</title>
<path fill="none" stroke="grey" stroke-width="2" d="M124.061,-359.859C83.6758,-340.568 25.6697,-304.855 4.88164,-252 -16.6521,-197.249 42.0439,-143.483 82.9941,-114.033"/>
<polygon fill="grey" stroke="grey" points="85.2448,-116.729 91.4278,-108.126 81.229,-110.996 85.2448,-116.729"/>
</g>
<!-- 4 -->
<g id="node5" class="node"><title>4</title>
<path fill="none" stroke="#88d856" stroke-width="2" d="M195.882,-180C195.882,-180 135.882,-180 135.882,-180 129.882,-180 123.882,-174 123.882,-168 123.882,-168 123.882,-156 123.882,-156 123.882,-150 129.882,-144 135.882,-144 135.882,-144 195.882,-144 195.882,-144 201.882,-144 207.882,-150 207.882,-156 207.882,-156 207.882,-168 207.882,-168 207.882,-174 201.882,-180 195.882,-180"/>
<text text-anchor="middle" x="165.882" y="-159.5" font-family="sans" font-size="10.00">bin_metabat2</text>
</g>
<!-- 2&#45;&gt;4 -->
<g id="edge7" class="edge"><title>2&#45;&gt;4</title>
<path fill="none" stroke="grey" stroke-width="2" d="M197.741,-359.785C210.77,-350.942 224.495,-338.873 231.882,-324 253.237,-281.003 254.952,-259.137 233.882,-216 228.076,-204.114 218.175,-194.119 207.698,-186.125"/>
<polygon fill="grey" stroke="grey" points="209.425,-183.059 199.239,-180.145 205.385,-188.775 209.425,-183.059"/>
</g>
<!-- 6 -->
<g id="node7" class="node"><title>6</title>
<path fill="none" stroke="#56c1d8" stroke-width="2" d="M211.132,-324C211.132,-324 120.632,-324 120.632,-324 114.632,-324 108.632,-318 108.632,-312 108.632,-312 108.632,-300 108.632,-300 108.632,-294 114.632,-288 120.632,-288 120.632,-288 211.132,-288 211.132,-288 217.132,-288 223.132,-294 223.132,-300 223.132,-300 223.132,-312 223.132,-312 223.132,-318 217.132,-324 211.132,-324"/>
<text text-anchor="middle" x="165.882" y="-303.5" font-family="sans" font-size="10.00">bowtie2_map_reads</text>
</g>
<!-- 2&#45;&gt;6 -->
<g id="edge11" class="edge"><title>2&#45;&gt;6</title>
<path fill="none" stroke="grey" stroke-width="2" d="M165.882,-359.697C165.882,-351.983 165.882,-342.712 165.882,-334.112"/>
<polygon fill="grey" stroke="grey" points="169.382,-334.104 165.882,-324.104 162.382,-334.104 169.382,-334.104"/>
</g>
<!-- 7 -->
<g id="node8" class="node"><title>7</title>
<path fill="none" stroke="#59d856" stroke-width="2" d="M75.8816,-252C75.8816,-252 25.8816,-252 25.8816,-252 19.8816,-252 13.8816,-246 13.8816,-240 13.8816,-240 13.8816,-228 13.8816,-228 13.8816,-222 19.8816,-216 25.8816,-216 25.8816,-216 75.8816,-216 75.8816,-216 81.8816,-216 87.8816,-222 87.8816,-228 87.8816,-228 87.8816,-240 87.8816,-240 87.8816,-246 81.8816,-252 75.8816,-252"/>
<text text-anchor="middle" x="50.8816" y="-231.5" font-family="sans" font-size="10.00">bin_concoct</text>
</g>
<!-- 2&#45;&gt;7 -->
<g id="edge12" class="edge"><title>2&#45;&gt;7</title>
<path fill="none" stroke="grey" stroke-width="2" d="M139.259,-359.798C126.015,-350.34 110.416,-337.748 98.8816,-324 83.1,-305.19 70.2353,-280.368 61.8108,-261.718"/>
<polygon fill="grey" stroke="grey" points="64.9199,-260.092 57.7077,-252.331 58.5059,-262.895 64.9199,-260.092"/>
</g>
<!-- 8 -->
<g id="node9" class="node"><title>8</title>
<path fill="none" stroke="#d85656" stroke-width="2" d="M348.882,-324C348.882,-324 292.882,-324 292.882,-324 286.882,-324 280.882,-318 280.882,-312 280.882,-312 280.882,-300 280.882,-300 280.882,-294 286.882,-288 292.882,-288 292.882,-288 348.882,-288 348.882,-288 354.882,-288 360.882,-294 360.882,-300 360.882,-300 360.882,-312 360.882,-312 360.882,-318 354.882,-324 348.882,-324"/>
<text text-anchor="middle" x="320.882" y="-303.5" font-family="sans" font-size="10.00">bin_maxbin2</text>
</g>
<!-- 2&#45;&gt;8 -->
<g id="edge14" class="edge"><title>2&#45;&gt;8</title>
<path fill="none" stroke="grey" stroke-width="2" d="M203.799,-359.876C224.894,-350.349 251.338,-338.407 273.754,-328.283"/>
<polygon fill="grey" stroke="grey" points="275.414,-331.374 283.088,-324.068 272.533,-324.994 275.414,-331.374"/>
</g>
<!-- 3 -->
<g id="node4" class="node"><title>3</title>
<path fill="none" stroke="#56d88a" stroke-width="2" d="M298.882,-468C298.882,-468 218.882,-468 218.882,-468 212.882,-468 206.882,-462 206.882,-456 206.882,-456 206.882,-444 206.882,-444 206.882,-438 212.882,-432 218.882,-432 218.882,-432 298.882,-432 298.882,-432 304.882,-432 310.882,-438 310.882,-444 310.882,-444 310.882,-456 310.882,-456 310.882,-462 304.882,-468 298.882,-468"/>
<text text-anchor="middle" x="258.882" y="-453" font-family="sans" font-size="10.00">sickle_trim</text>
<text text-anchor="middle" x="258.882" y="-442" font-family="sans" font-size="10.00">sample: CJ_V2_S8</text>
</g>
<!-- 3&#45;&gt;2 -->
<g id="edge6" class="edge"><title>3&#45;&gt;2</title>
<path fill="none" stroke="grey" stroke-width="2" d="M235.893,-431.697C224.068,-422.796 209.49,-411.823 196.703,-402.199"/>
<polygon fill="grey" stroke="grey" points="198.7,-399.322 188.606,-396.104 194.491,-404.915 198.7,-399.322"/>
</g>
<!-- 3&#45;&gt;6 -->
<g id="edge10" class="edge"><title>3&#45;&gt;6</title>
<path fill="none" stroke="grey" stroke-width="2" d="M258.562,-431.877C257.451,-412.864 253.331,-381.962 238.882,-360 230.985,-347.998 219.374,-337.792 207.725,-329.636"/>
<polygon fill="grey" stroke="grey" points="209.561,-326.654 199.288,-324.063 205.703,-332.495 209.561,-326.654"/>
</g>
<!-- 3&#45;&gt;8 -->
<g id="edge15" class="edge"><title>3&#45;&gt;8</title>
<path fill="none" stroke="grey" stroke-width="2" d="M266.36,-431.871C277.02,-407.457 296.682,-362.426 309.252,-333.635"/>
<polygon fill="grey" stroke="grey" points="312.583,-334.754 313.376,-324.189 306.167,-331.953 312.583,-334.754"/>
</g>
<!-- 4&#45;&gt;1 -->
<g id="edge3" class="edge"><title>4&#45;&gt;1</title>
<path fill="none" stroke="grey" stroke-width="2" d="M154.264,-143.697C148.743,-135.474 142.035,-125.483 135.95,-116.421"/>
<polygon fill="grey" stroke="grey" points="138.846,-114.456 130.366,-108.104 133.035,-118.358 138.846,-114.456"/>
</g>
<!-- 5 -->
<g id="node6" class="node"><title>5</title>
<path fill="none" stroke="#568ad8" stroke-width="2" d="M213.132,-252C213.132,-252 118.632,-252 118.632,-252 112.632,-252 106.632,-246 106.632,-240 106.632,-240 106.632,-228 106.632,-228 106.632,-222 112.632,-216 118.632,-216 118.632,-216 213.132,-216 213.132,-216 219.132,-216 225.132,-222 225.132,-228 225.132,-228 225.132,-240 225.132,-240 225.132,-246 219.132,-252 213.132,-252"/>
<text text-anchor="middle" x="165.882" y="-231.5" font-family="sans" font-size="10.00">generate_depth_files</text>
</g>
<!-- 5&#45;&gt;4 -->
<g id="edge8" class="edge"><title>5&#45;&gt;4</title>
<path fill="none" stroke="grey" stroke-width="2" d="M165.882,-215.697C165.882,-207.983 165.882,-198.712 165.882,-190.112"/>
<polygon fill="grey" stroke="grey" points="169.382,-190.104 165.882,-180.104 162.382,-190.104 169.382,-190.104"/>
</g>
<!-- 6&#45;&gt;5 -->
<g id="edge9" class="edge"><title>6&#45;&gt;5</title>
<path fill="none" stroke="grey" stroke-width="2" d="M165.882,-287.697C165.882,-279.983 165.882,-270.712 165.882,-262.112"/>
<polygon fill="grey" stroke="grey" points="169.382,-262.104 165.882,-252.104 162.382,-262.104 169.382,-262.104"/>
</g>
<!-- 6&#45;&gt;7 -->
<g id="edge13" class="edge"><title>6&#45;&gt;7</title>
<path fill="none" stroke="grey" stroke-width="2" d="M137.749,-287.876C122.713,-278.724 104.014,-267.342 87.8213,-257.485"/>
<polygon fill="grey" stroke="grey" points="89.4838,-254.4 79.1219,-252.19 85.8441,-260.379 89.4838,-254.4"/>
</g>
<!-- 7&#45;&gt;1 -->
<g id="edge4" class="edge"><title>7&#45;&gt;1</title>
<path fill="none" stroke="grey" stroke-width="2" d="M59.084,-215.871C70.8265,-191.35 92.5282,-146.032 106.307,-117.259"/>
<polygon fill="grey" stroke="grey" points="109.488,-118.72 110.65,-108.189 103.174,-115.697 109.488,-118.72"/>
</g>
<!-- 8&#45;&gt;1 -->
<g id="edge5" class="edge"><title>8&#45;&gt;1</title>
<path fill="none" stroke="grey" stroke-width="2" d="M313.425,-287.979C298.831,-256.256 263.78,-187.386 216.882,-144 203.351,-131.482 186.314,-120.94 170.256,-112.637"/>
<polygon fill="grey" stroke="grey" points="171.46,-109.327 160.948,-108.009 168.344,-115.595 171.46,-109.327"/>
</g>
</g>
</svg>
